<svg version="1.2" xmlns="http://www.w3.org/2000/svg" viewBox="0 0 70 276" width="70" height="276">
	<style>
		.s0 { fill: #1490ff } 
	</style>
	<g>
		<path class="s0" d="m14 184.5v-91.5h21 21v91.5 91.5h-21-21z"/>
		<path class="s0" d="m32.4 66.3c1.9-9.3 2.5-17.8 1.6-24-1.3-8.9-1.2-9.3 0.4-9.3 1.9 0 2.9 6.2 2.9 17.2-0.1 10.3-1.8 18.8-4 18.8-1.1 0-1.3-0.7-0.9-2.7z"/>
		<path class="s0" d="m40.4 67.4c0.3-0.8 1.1-5.4 1.7-10.3 1.4-11-0.1-24.5-3-27.5-2.4-2.3-6.6-2.4-9.1-0.1-1.9 1.7-2 2.7-1.4 12.5 0.8 12-0.1 22-1.9 22-1.4 0-1.7-33.7-0.3-35.9 0.5-0.7 2.3-1.9 4.1-2.7 4.1-1.7 9.9-0.3 12 2.9 2.2 3.4 3.8 16.3 3.1 25.3-0.9 11.6-1.5 14.1-3.8 14.7-1.4 0.4-1.8 0.2-1.4-0.9z"/>
		<path class="s0" d="m49.9 62.3c0.4-2.4 1.2-3.8 2.1-3.8 2.8 0 0.8 7.4-2.1 7.5-0.3 0-0.3-1.7 0-3.7z"/>
		<path class="s0" d="m17.3 64.2c-1-0.6-1-2.3-0.2-7.2 0.6-3.6 0.8-8.9 0.4-11.7-0.5-4.4-0.4-5.3 0.9-5.3 2.2 0 3 4.1 2.3 12.9-0.7 9-1.7 12.3-3.4 11.3z"/>
		<path class="s0" d="m10.4 58.9c-0.6-0.8-1.4-7.7-1.8-15.7-0.6-13.1-0.5-14.6 1.4-19 2.8-6.2 7.3-10.9 13.5-13.8 5.9-2.8 14.5-3.3 14.5-0.9 0 1.1-1.1 1.5-4.2 1.5-6.3 0-14.1 4-17.7 9.1-4.6 6.3-5.5 10.7-4.3 21.4 1.2 10.2 0.4 19.7-1.4 17.4z"/>
		<path class="s0" d="m59 48.8c0-18.2-3-27.6-10.5-33.4-3.8-2.8-4.4-4.4-2-4.4 0.9 0 3.8 2.2 6.5 4.9 6.4 6.4 8.1 11.9 8.7 28.1 0.5 10.7 0.3 12.8-1.1 13.9-1.5 1.2-1.6 0.4-1.6-9.1z"/>
		<path class="s0" d="m1.9 45.3c-3.9-13.3-0.1-27.3 9.8-36.3 7.5-6.9 14.4-9.3 24.8-8.8 8.8 0.5 13.9 2.5 21.2 8.4 7.6 6.2 13.1 21.1 11.7 31.6-1 7.5-2.1 6.5-2.7-2.5-1-13.8-5.1-22.6-13.5-28.8-5.5-4-11.4-5.9-18.6-5.9-9.6 0-15.1 2.4-22.3 9.5-8.1 8.1-9.8 13.5-8.8 27.7 0.3 5.4 0.5 9.8 0.2 9.8-0.2 0-1.1-2.1-1.8-4.7z"/>
		<path class="s0" d="m50.6 42.3c-0.3-4.3-1.1-9.5-1.6-11.5-3.2-11.3-15.8-15.3-24.5-7.7-1.8 1.6-3.7 4.3-4 5.9-0.8 3.5-3.5 4.1-3.5 0.8 0-5.5 7.6-12.3 14.7-13.4 8.6-1.3 17.8 4.8 20.3 13.3 0.6 2.1 1.3 7.5 1.7 12.1 0.5 6.9 0.4 8.2-0.9 8.2-1.2 0-1.7-1.8-2.2-7.7z"/>
	</g>
</svg>